<svg width="82" height="94" viewBox="0 0 82 94" fill="none" xmlns="http://www.w3.org/2000/svg">
<path d="M81.54 65.5232V4.36821C81.54 1.9475 79.5925 0 77.1718 0H17.4729C7.82638 0 0 7.82638 0 17.4729V75.7157C0 85.3622 7.82638 93.1886 17.4729 93.1886H77.1718C79.5925 93.1886 81.54 91.2411 81.54 88.8204V85.9082C81.54 84.5431 80.903 83.3055 79.9201 82.5046C79.1557 79.7017 79.1557 71.7115 79.9201 68.9086C80.903 68.1259 81.54 66.8883 81.54 65.5232ZM23.2971 24.3892C23.2971 23.7886 23.7886 23.2971 24.3892 23.2971H62.9751C63.5757 23.2971 64.0671 23.7886 64.0671 24.3892V28.0294C64.0671 28.63 63.5757 29.1214 62.9751 29.1214H24.3892C23.7886 29.1214 23.2971 28.63 23.2971 28.0294V24.3892ZM23.2971 36.0378C23.2971 35.4371 23.7886 34.9457 24.3892 34.9457H62.9751C63.5757 34.9457 64.0671 35.4371 64.0671 36.0378V39.6779C64.0671 40.2786 63.5757 40.77 62.9751 40.77H24.3892C23.7886 40.77 23.2971 40.2786 23.2971 39.6779V36.0378ZM69.4182 81.54H17.4729C14.2513 81.54 11.6486 78.9373 11.6486 75.7157C11.6486 72.5124 14.2695 69.8914 17.4729 69.8914H69.4182C69.0724 73.0038 69.0724 78.4276 69.4182 81.54Z" fill="black"/>
</svg>
