<svg width="88" height="136" viewBox="0 0 88 136" fill="none" xmlns="http://www.w3.org/2000/svg">
<path d="M47.5346 130.412C47.5346 130.412 50.3513 120.062 33.4514 122.65V116.504" stroke="black" stroke-width="5.63327" stroke-miterlimit="10" stroke-linecap="round" stroke-linejoin="round"/>
<path d="M61.6178 123.62C61.6178 123.62 64.4345 113.27 47.5346 115.857V109.712" stroke="black" stroke-width="5.63327" stroke-miterlimit="10" stroke-linecap="round" stroke-linejoin="round"/>
<path d="M25.0016 52.785C25.0016 52.785 6.69346 38.5533 24.2974 14.6182C24.2974 14.6182 22.185 6.2086 16.5517 6.2086C10.9184 6.2086 30.6349 -1.55414 33.4515 8.79618C33.4515 8.79618 53.168 1.03344 64.4345 8.79618C64.4345 8.79618 79.2219 -0.26035 84.5031 4.26791C84.5031 4.26791 72.8844 11.3838 78.5177 16.5589C84.151 21.7341 89.7842 42.4347 75.7011 52.785" stroke="black" stroke-width="5.63327" stroke-miterlimit="10" stroke-linecap="round" stroke-linejoin="round"/>
<path d="M53.1679 52.785C53.1679 52.785 25.0015 52.785 25.0015 32.4078C25.0015 9.80765 48.0718 20.1533 50.3513 24.3216C50.3513 24.3216 70.0677 8.79617 76.0531 28.203C81.8508 47.0015 53.1679 52.785 53.1679 52.785Z" stroke="black" stroke-width="5.63327" stroke-miterlimit="10" stroke-linecap="round" stroke-linejoin="round"/>
<path d="M16.5518 55.3726C-10.2063 66.6933 10.9185 133 10.9185 133C10.9185 133 35.5641 109.065 55.6326 106.801C75.7011 104.537 86.2635 70.2512 81.3344 57.9602" stroke="black" stroke-width="5.63327" stroke-miterlimit="10" stroke-linecap="round" stroke-linejoin="round"/>
<path d="M10.9186 127.825C10.9186 127.825 8.80608 109.712 15.4956 104.537C22.1851 99.3615 44.7182 81.2484 41.9016 65.723" stroke="black" stroke-width="5.63327" stroke-miterlimit="10" stroke-linecap="round" stroke-linejoin="round"/>
</svg>
