<svg width="82" height="62" viewBox="0 0 82 62" fill="none" xmlns="http://www.w3.org/2000/svg">
<path d="M79.9952 20.1939C80.6163 19.7002 81.54 20.162 81.54 20.9424V53.5106C81.54 57.731 78.116 61.155 73.8956 61.155H7.64437C3.42404 61.155 0 57.731 0 53.5106V20.9583C0 20.162 0.90777 19.7161 1.5448 20.2098C5.11218 22.9809 9.84213 26.5005 26.0864 38.3015C29.4468 40.7541 35.1163 45.914 40.77 45.8822C46.4555 45.93 52.2366 40.6585 55.4695 38.3015C71.7138 26.5005 76.4278 22.965 79.9952 20.1939ZM40.77 40.77C44.4648 40.8337 49.784 36.1197 52.4595 34.1767C73.593 18.8402 75.2015 17.5024 80.0748 13.6802C80.9985 12.9636 81.54 11.8488 81.54 10.6703V7.64437C81.54 3.42404 78.116 0 73.8956 0H7.64437C3.42404 0 0 3.42404 0 7.64437V10.6703C0 11.8488 0.541476 12.9477 1.46517 13.6802C6.33846 17.4865 7.94697 18.8402 29.0805 34.1767C31.756 36.1197 37.0752 40.8337 40.77 40.77Z" fill="black"/>
</svg>
