<svg width="164" height="174" viewBox="0 0 164 174" fill="none" xmlns="http://www.w3.org/2000/svg">
<path d="M123.504 118.261C129.312 114.447 136.939 118.608 136.939 125.542V136.723C136.939 147.731 128.358 159.518 118.044 162.985L90.3944 172.173C85.5406 173.82 77.6531 173.82 72.886 172.173L45.2364 162.985C34.8354 159.518 26.3412 147.731 26.3412 136.723V125.455C26.3412 118.608 33.9686 114.447 39.6892 118.174L57.5443 129.789C64.3918 134.383 73.0593 136.636 81.7269 136.636C90.3944 136.636 99.062 134.383 105.909 129.789L123.504 118.261Z" fill="#292D32"/>
<path d="M150.793 38.6789L98.8747 4.61547C89.5138 -1.53849 74.0856 -1.53849 64.7246 4.61547L12.5463 38.6789C-4.18209 49.5133 -4.18209 74.0426 12.5463 84.9637L26.4143 93.9779L64.7246 118.94C74.0856 125.094 89.5138 125.094 98.8747 118.94L136.925 93.9779L148.8 86.1771V112.7C148.8 116.254 151.747 119.2 155.3 119.2C158.854 119.2 161.801 116.254 161.801 112.7V70.0555C165.268 58.8743 161.714 45.873 150.793 38.6789Z" fill="#292D32"/>
</svg>
