<svg width="82" height="82" viewBox="0 0 82 82" fill="none" xmlns="http://www.w3.org/2000/svg">
<path d="M81.54 57.8526C81.54 72.6929 72.6929 81.54 57.8526 81.54H53.001C50.7587 81.54 48.924 79.7054 48.924 77.463V53.9387C48.924 52.8379 49.8209 51.9002 50.9217 51.9002L58.0973 51.7779C58.668 51.7371 59.1573 51.3294 59.2796 50.7587L60.7065 42.9716C60.8288 42.2377 60.2581 41.5446 59.4834 41.5446L50.7994 41.6669C49.6579 41.6669 48.7609 40.77 48.7201 39.6692L48.5571 29.6806C48.5571 29.0282 49.0871 28.4575 49.7802 28.4575L59.565 28.2944C60.2581 28.2944 60.7881 27.7644 60.7881 27.0713L60.625 17.2864C60.625 16.5934 60.095 16.0634 59.4019 16.0634L48.394 16.2265C41.6262 16.3488 36.2445 21.8935 36.3668 28.6613L36.5707 39.8731C36.6115 41.0146 35.7145 41.9116 34.573 41.9523L29.6806 42.0339C28.9875 42.0339 28.4575 42.5639 28.4575 43.257L28.5798 51.0033C28.5798 51.6964 29.1098 52.2264 29.8029 52.2264L34.6953 52.1448C35.8368 52.1448 36.7338 53.0418 36.7745 54.1426L37.1415 77.3815C37.1822 79.6646 35.3476 81.54 33.0645 81.54H23.6874C8.84709 81.54 0 72.6929 0 57.8119V23.6874C0 8.84709 8.84709 0 23.6874 0H57.8526C72.6929 0 81.54 8.84709 81.54 23.6874V57.8526Z" fill="black"/>
</svg>
