<svg width="86" height="86" viewBox="0 0 86 86" fill="none" xmlns="http://www.w3.org/2000/svg">
<path d="M61.571 2H23.9692C11.836 2 2 11.836 2 23.9692V61.5708C2 73.704 11.836 83.54 23.9692 83.54H61.5708C73.704 83.54 83.54 73.704 83.54 61.5708V23.9692C83.5402 11.836 73.7042 2 61.571 2Z" stroke="black" stroke-width="3.48665" stroke-miterlimit="10"/>
<path d="M42.7701 62.4522C53.6403 62.4522 62.4523 53.6402 62.4523 42.7701C62.4523 31.9 53.6403 23.088 42.7701 23.088C31.9 23.088 23.088 31.9 23.088 42.7701C23.088 53.6402 31.9 62.4522 42.7701 62.4522Z" stroke="black" stroke-width="3.48665" stroke-miterlimit="10"/>
<path d="M66.6697 23.0881C68.999 23.0881 70.8873 21.1998 70.8873 18.8705C70.8873 16.5412 68.999 14.6529 66.6697 14.6529C64.3403 14.6529 62.452 16.5412 62.452 18.8705C62.452 21.1998 64.3403 23.0881 66.6697 23.0881Z" fill="black"/>
</svg>
