<svg width="88" height="148" viewBox="0 0 88 148" fill="none" xmlns="http://www.w3.org/2000/svg">
<path d="M44.718 34.659C44.718 34.659 46.1263 30.434 36.2681 29.0257" stroke="black" stroke-width="4.22496" stroke-miterlimit="10" stroke-linecap="round" stroke-linejoin="round"/>
<path d="M55.9846 34.659C55.9846 34.659 54.5763 30.434 64.4345 29.0257" stroke="black" stroke-width="4.22496" stroke-miterlimit="10" stroke-linecap="round" stroke-linejoin="round"/>
<path d="M46.4784 44.3201L51.4075 48.7422L57.0408 44.0773" stroke="black" stroke-width="4.22496" stroke-miterlimit="10" stroke-linecap="round" stroke-linejoin="round"/>
<path d="M47.5346 141.691C47.5346 141.691 50.3512 130.425 33.4514 133.241V126.552" stroke="black" stroke-width="5.63327" stroke-miterlimit="10" stroke-linecap="round" stroke-linejoin="round"/>
<path d="M61.6179 134.298C61.6179 134.298 64.4345 123.031 47.5347 125.848V119.158" stroke="black" stroke-width="5.63327" stroke-miterlimit="10" stroke-linecap="round" stroke-linejoin="round"/>
<path d="M25.0016 57.1921C25.0016 57.1921 6.69349 41.7006 24.2975 15.6467C24.2975 15.6467 22.185 6.49263 16.5517 6.49263C10.9184 6.49263 30.6349 -1.95728 33.4515 9.30927C33.4515 9.30927 53.168 0.859356 64.4345 9.30927C64.4345 9.30927 79.2219 -0.548962 84.5031 4.38015C84.5031 4.38015 72.8845 12.1259 78.5177 17.7592C84.151 23.3924 89.7843 45.9255 75.7011 57.1921" stroke="black" stroke-width="5.63327" stroke-miterlimit="10" stroke-linecap="round" stroke-linejoin="round"/>
<path d="M53.168 57.1921C53.168 57.1921 25.0016 57.1921 25.0016 35.0111C25.0016 10.4103 48.0718 21.6718 50.3513 26.2091C50.3513 26.2091 70.0678 9.30927 76.0531 30.434C81.8509 50.8966 53.168 57.1921 53.168 57.1921Z" stroke="black" stroke-width="5.63327" stroke-miterlimit="10" stroke-linecap="round" stroke-linejoin="round"/>
<path d="M16.5518 60.0087C-10.2063 72.3315 10.9185 144.508 10.9185 144.508C10.9185 144.508 35.5641 118.454 55.6326 115.989C75.7011 113.525 86.2635 76.2044 81.3344 62.8254" stroke="black" stroke-width="5.63327" stroke-miterlimit="10" stroke-linecap="round" stroke-linejoin="round"/>
<path d="M10.9186 138.875C10.9186 138.875 8.80611 119.158 15.4956 113.525C22.1851 107.892 44.7182 88.1751 41.9016 71.2753" stroke="black" stroke-width="5.63327" stroke-miterlimit="10" stroke-linecap="round" stroke-linejoin="round"/>
</svg>
