<svg width="164" height="131" viewBox="0 0 164 131" fill="none" xmlns="http://www.w3.org/2000/svg">
<path d="M53.0013 89.6938C52.3923 89.6938 51.7833 89.783 51.2023 89.9715C47.9 91.0443 44.4269 91.7323 40.7703 91.7323C37.1138 91.7323 33.6407 91.0443 30.3358 89.9715C29.7548 89.783 29.1483 89.6938 28.5393 89.6938C12.7257 89.6938 -0.0836763 102.557 0.000411643 118.391C0.0360853 125.082 5.53747 130.464 12.2314 130.464H69.3092C76.0032 130.464 81.5045 125.082 81.5402 118.391C81.6243 102.557 68.8149 89.6938 53.0013 89.6938ZM40.7703 81.5398C54.2804 81.5398 65.2323 70.588 65.2323 57.0779C65.2323 43.5677 54.2804 32.6159 40.7703 32.6159C27.2602 32.6159 16.3084 43.5677 16.3084 57.0779C16.3084 70.588 27.2602 81.5398 40.7703 81.5398ZM150.849 0H53.0013C46.2564 0 40.7703 5.66956 40.7703 12.6361V24.4619C46.738 24.4619 52.2623 26.1896 57.0783 28.9976V16.308H146.772V89.6938H130.464V73.3858H97.8482V89.6938H78.4213C83.2882 93.9466 86.8607 99.5626 88.5348 106.002H150.849C157.594 106.002 163.08 100.332 163.08 93.3656V12.6361C163.08 5.66956 157.594 0 150.849 0Z" fill="black"/>
</svg>
