<svg width="82" height="82" viewBox="0 0 82 82" fill="none" xmlns="http://www.w3.org/2000/svg">
<path fill-rule="evenodd" clip-rule="evenodd" d="M12.7406 0C5.70421 0 0 5.70418 0 12.7406V68.7994C0 75.8358 5.70421 81.54 12.7406 81.54H68.7994C75.8358 81.54 81.54 75.8358 81.54 68.7994V12.7406C81.54 5.70418 75.8358 0 68.7994 0H12.7406ZM48.7156 20.385C48.7156 20.9908 48.7721 21.5875 48.8764 22.1649C49.3778 24.8342 50.9574 27.1248 53.1518 28.554C54.684 29.5575 56.5001 30.1349 58.4578 30.1349L58.4573 31.6969V37.1397C54.8255 37.1397 51.4584 35.9754 48.7156 34.0065V48.2528C48.7156 55.3618 42.9272 61.155 35.8243 61.155C33.0815 61.155 30.5278 60.2838 28.4376 58.8168C25.1084 56.4787 22.9331 52.6165 22.9331 48.2528C22.9331 41.1344 28.712 35.3506 35.8149 35.3601C36.4107 35.3601 36.9878 35.4075 37.5553 35.4832V37.1397L37.5344 37.1496L37.555 37.1491V42.6396C37.0067 42.4691 36.4201 42.3649 35.8149 42.3649C32.5709 42.3649 29.9321 45.006 29.9321 48.2528C29.9321 50.5153 31.2184 52.4746 33.091 53.4686C33.1187 53.5065 33.1468 53.5443 33.1753 53.5815C33.1539 53.5399 33.1289 53.4992 33.1004 53.4592C33.9232 53.8946 34.8502 54.1405 35.8338 54.1405C39.0021 54.1405 41.5938 51.6133 41.7072 48.4707L41.7166 20.385H48.7156Z" fill="black"/>
</svg>
