<svg width="82" height="82" viewBox="0 0 82 82" fill="none" xmlns="http://www.w3.org/2000/svg">
<path d="M81.4729 38.3612C80.087 14.7178 58.604 -3.50393 33.8598 0.57254C16.8201 3.3853 3.16396 17.2044 0.514256 34.244C-1.0348 44.109 1.00351 53.4441 5.44686 61.1486L1.81877 74.6418C1.00347 77.6991 3.81615 80.4711 6.83274 79.615L20.1221 75.9462C26.1552 79.4927 33.2076 81.531 40.749 81.531C63.7403 81.531 82.8182 61.2709 81.4729 38.3612ZM60.683 55.9308C60.3161 56.6645 59.8677 57.3575 59.297 58.0098C58.2778 59.1104 57.1772 59.9257 55.9543 60.4149C54.7313 60.9448 53.3861 61.1894 51.9593 61.1894C49.8803 61.1894 47.6383 60.7006 45.3147 59.6815C42.9503 58.6624 40.6267 57.3168 38.3032 55.6454C35.9388 53.9333 33.7375 52.0174 31.6177 49.9384C29.498 47.8186 27.6227 45.5765 25.9106 43.253C24.2392 40.9294 22.8941 38.6058 21.9157 36.2822C20.9374 33.9586 20.4483 31.7168 20.4483 29.597C20.4483 28.211 20.6928 26.8657 21.182 25.6428C21.6712 24.3791 22.4458 23.2377 23.5464 22.2186C24.8509 20.9141 26.2776 20.3026 27.7859 20.3026C28.3565 20.3026 28.9272 20.4249 29.4571 20.6695C29.987 20.9141 30.4763 21.281 30.8432 21.8109L35.5719 28.4963C35.9388 29.0262 36.2242 29.4746 36.3872 29.923C36.591 30.3714 36.6726 30.7791 36.6726 31.1867C36.6726 31.6759 36.5095 32.1652 36.2242 32.6541C35.9388 33.1433 35.5719 33.6325 35.0827 34.1217L33.5337 35.7523C33.2891 35.9968 33.2076 36.2414 33.2076 36.5675C33.2076 36.7306 33.2483 36.8937 33.2891 37.0567C33.3706 37.2198 33.4114 37.3421 33.4522 37.4644C33.819 38.1574 34.4713 39.0134 35.3681 40.0733C36.3057 41.1332 37.284 42.2338 38.3439 43.2937C39.4446 44.3944 40.5044 45.3727 41.6051 46.3103C42.665 47.2071 43.5618 47.8186 44.2548 48.1855C44.3771 48.2262 44.4994 48.3078 44.6217 48.3485C44.7847 48.4301 44.9478 48.4301 45.1516 48.4301C45.5185 48.4301 45.7631 48.3078 46.0077 48.0632L47.5567 46.5141C48.0867 45.9842 48.5758 45.6173 49.0243 45.3727C49.5134 45.0874 49.9618 44.9243 50.4918 44.9243C50.8994 44.9243 51.3071 45.0058 51.7555 45.2097C52.2039 45.4135 52.6931 45.6581 53.1823 46.0249L59.9492 50.8352C60.4791 51.2021 60.846 51.6505 61.0906 52.1396C61.2944 52.6696 61.4167 53.1588 61.4167 53.7295C61.1721 54.4225 61.0091 55.197 60.683 55.9308Z" fill="black"/>
</svg>
